<svg width="24" height="24" viewBox="0 0 24 24" fill="none" xmlns="http://www.w3.org/2000/svg">
<g clip-path="url(#clip0_5906_156)">
<path fill-rule="evenodd" clip-rule="evenodd" d="M2.54497 4.13955C2 5.36955 2 6.9797 2 10.2V14.8C2 18.0203 2 19.6305 2.54497 20.8604C3.02433 21.9424 3.78924 22.822 4.73005 23.3733C5.79961 24 7.19974 24 10 24H14C16.8003 24 18.2004 24 19.27 23.3733C20.2108 22.822 20.9757 21.9424 21.455 20.8604C22 19.6305 22 18.0203 22 14.8V10.2C22 6.9797 22 5.36955 21.455 4.13955C20.9757 3.05762 20.2108 2.17798 19.27 1.62671C18.2004 1 16.8003 1 14 1H10C7.19974 1 5.79961 1 4.73005 1.62671C3.78924 2.17798 3.02433 3.05762 2.54497 4.13955Z" fill="white"/>
<g clip-path="url(#clip1_5906_156)">
<path d="M0.653961 3.27606C0 4.55953 0 6.23969 0 9.6V14.4C0 17.7603 0 19.4405 0.653961 20.7239C1.2292 21.8529 2.14708 22.7708 3.27606 23.346C4.55953 24 6.23969 24 9.6 24H11.8972V14.9022H8.4939V11.0704H11.8972V8.15005C11.8972 4.82785 13.8984 2.99277 16.9601 2.99277C18.4266 2.99277 19.9606 3.25167 19.9606 3.25167V6.5138H18.2704C16.6052 6.5138 16.086 7.53558 16.086 8.58386V11.0704H19.8035L19.2092 14.9022H16.086V23.996C18.3628 23.978 19.6757 23.8802 20.7239 23.346C21.8529 22.7708 22.7708 21.8529 23.346 20.7239C24 19.4405 24 17.7603 24 14.4V9.6C24 6.23969 24 4.55953 23.346 3.27606C22.7708 2.14708 21.8529 1.2292 20.7239 0.653961C19.4405 0 17.7603 0 14.4 0H9.6C6.23969 0 4.55953 0 3.27606 0.653961C2.14708 1.2292 1.2292 2.14708 0.653961 3.27606Z" fill="#1877F2"/>
</g>
</g>
<defs>
<clipPath id="clip0_5906_156">
<rect width="24" height="24" fill="white"/>
</clipPath>
<clipPath id="clip1_5906_156">
<rect width="24" height="24" fill="white"/>
</clipPath>
</defs>
</svg>
